<?xml version="1.0" encoding="UTF-8" standalone="no"?>
<!-- Created with Inkscape (http://www.inkscape.org/) -->

<svg
   xmlns:dc="http://purl.org/dc/elements/1.1/"
   xmlns:cc="http://creativecommons.org/ns#"
   xmlns:rdf="http://www.w3.org/1999/02/22-rdf-syntax-ns#"
   xmlns:svg="http://www.w3.org/2000/svg"
   xmlns="http://www.w3.org/2000/svg"
   xmlns:sodipodi="http://sodipodi.sourceforge.net/DTD/sodipodi-0.dtd"
   xmlns:inkscape="http://www.inkscape.org/namespaces/inkscape"
   version="1.1"
   width="304.25677"
   height="103.85941"
   id="svg2"
   inkscape:version="0.48.5 r10040"
   sodipodi:docname="slider.svg">
  <sodipodi:namedview
     pagecolor="#ffffff"
     bordercolor="#666666"
     borderopacity="1"
     objecttolerance="10"
     gridtolerance="10"
     guidetolerance="10"
     inkscape:pageopacity="0"
     inkscape:pageshadow="2"
     inkscape:window-width="1596"
     inkscape:window-height="877"
     id="namedview3091"
     showgrid="false"
     fit-margin-top="0"
     fit-margin-left="0"
     fit-margin-right="0"
     fit-margin-bottom="0"
     inkscape:zoom="4.0336135"
     inkscape:cx="138.06768"
     inkscape:cy="47.910549"
     inkscape:window-x="0"
     inkscape:window-y="19"
     inkscape:window-maximized="0"
     inkscape:current-layer="svg2" />
  <defs
     id="defs4" />
  <metadata
     id="metadata7">
    <rdf:RDF>
      <cc:Work
         rdf:about="">
        <dc:format>image/svg+xml</dc:format>
        <dc:type
           rdf:resource="http://purl.org/dc/dcmitype/StillImage" />
        <dc:title />
      </cc:Work>
    </rdf:RDF>
  </metadata>
  <g
     id="g3828"
     transform="translate(-307.84457,-324.08484)">
    <path
       inkscape:connector-curvature="0"
       style="fill:none;stroke:#ffffff;stroke-width:8.39999962;stroke-linecap:butt;stroke-linejoin:miter;stroke-miterlimit:4;stroke-opacity:1;stroke-dasharray:none"
       id="path3757"
       d="m 459.97296,423.74425 0,-95.45941" />
    <path
       inkscape:connector-curvature="0"
       style="fill:none;stroke:#ffffff;stroke-width:8.39999962;stroke-linecap:butt;stroke-linejoin:miter;stroke-miterlimit:4;stroke-opacity:1;stroke-dasharray:none"
       id="path3759"
       d="m 440.35074,328.28484 39.24443,0" />
  </g>
  <g
     id="g3168"
     transform="translate(36.44375,7.4008598)">
    <g
       transform="translate(-5.4396534,0)"
       id="g3145">
      <path
         inkscape:connector-curvature="0"
         style="fill:#ffffff;fill-opacity:1;stroke:none"
         id="path3806"
         d="m 9.19239,15.20768 a 4.596195,4.596195 0 0 1 -9.19239,0 4.596195,4.596195 0 1 1 9.19239,0 z" />
      <path
         inkscape:connector-curvature="0"
         style="fill:#ffffff;fill-opacity:1;stroke:none"
         id="path3814"
         d="m 9.19239,44.52885 a 4.596195,4.596195 0 0 1 -9.19239,0 4.596195,4.596195 0 1 1 9.19239,0 z" />
      <path
         inkscape:connector-curvature="0"
         style="fill:#ffffff;fill-opacity:1;stroke:none"
         id="path3822"
         d="m 9.19239,73.85001 a 4.596195,4.596195 0 0 1 -9.19239,0 4.596195,4.596195 0 1 1 9.19239,0 z" />
    </g>
    <g
       transform="translate(-2.7198849,0)"
       id="g3150">
      <path
         inkscape:connector-curvature="0"
         style="fill:#ffffff;fill-opacity:1;stroke:none"
         id="path3808"
         d="m 37.47672,15.20768 a 4.596195,4.596195 0 0 1 -9.19239,0 4.596195,4.596195 0 1 1 9.19239,0 z" />
      <path
         inkscape:connector-curvature="0"
         style="fill:#ffffff;fill-opacity:1;stroke:none"
         id="path3816"
         d="m 37.47672,44.52885 a 4.596195,4.596195 0 0 1 -9.19239,0 4.596195,4.596195 0 1 1 9.19239,0 z" />
      <path
         inkscape:connector-curvature="0"
         style="fill:#ffffff;fill-opacity:1;stroke:none"
         id="path3824"
         d="m 37.47672,73.85001 a 4.596195,4.596195 0 0 1 -9.19239,0 4.596195,4.596195 0 1 1 9.19239,0 z" />
    </g>
    <g
       id="g3155">
      <path
         inkscape:connector-curvature="0"
         style="fill:#ffffff;fill-opacity:1;stroke:none"
         id="path3810"
         d="m 65.76093,15.20768 a 4.596195,4.596195 0 0 1 -9.19239,0 4.596195,4.596195 0 1 1 9.19239,0 z" />
      <path
         inkscape:connector-curvature="0"
         style="fill:#ffffff;fill-opacity:1;stroke:none"
         id="path3818"
         d="m 65.76093,44.52885 a 4.596195,4.596195 0 0 1 -9.19239,0 4.596195,4.596195 0 1 1 9.19239,0 z" />
      <path
         inkscape:connector-curvature="0"
         style="fill:#ffffff;fill-opacity:1;stroke:none"
         id="path3826"
         d="m 65.76093,73.85001 a 4.596195,4.596195 0 0 1 -9.19239,0 4.596195,4.596195 0 1 1 9.19239,0 z" />
    </g>
    <g
       transform="translate(-36.44375,0)"
       id="g3160">
      <path
         d="m 9.19239,15.20768 a 4.596195,4.596195 0 0 1 -9.19239,0 4.596195,4.596195 0 1 1 9.19239,0 z"
         id="path3162"
         style="fill:#ffffff;fill-opacity:1;stroke:none"
         inkscape:connector-curvature="0" />
      <path
         d="m 9.19239,44.52885 a 4.596195,4.596195 0 0 1 -9.19239,0 4.596195,4.596195 0 1 1 9.19239,0 z"
         id="path3164"
         style="fill:#ffffff;fill-opacity:1;stroke:none"
         inkscape:connector-curvature="0" />
      <path
         d="m 9.19239,73.85001 a 4.596195,4.596195 0 0 1 -9.19239,0 4.596195,4.596195 0 1 1 9.19239,0 z"
         id="path3166"
         style="fill:#ffffff;fill-opacity:1;stroke:none"
         inkscape:connector-curvature="0" />
    </g>
  </g>
  <g
     transform="translate(238.49583,7.4008598)"
     id="g3186">
    <g
       id="g3188"
       transform="translate(-5.4396534,0)">
      <path
         d="m 9.19239,15.20768 a 4.596195,4.596195 0 0 1 -9.19239,0 4.596195,4.596195 0 1 1 9.19239,0 z"
         id="path3190"
         style="fill:#ffffff;fill-opacity:1;stroke:none"
         inkscape:connector-curvature="0" />
      <path
         d="m 9.19239,44.52885 a 4.596195,4.596195 0 0 1 -9.19239,0 4.596195,4.596195 0 1 1 9.19239,0 z"
         id="path3192"
         style="fill:#ffffff;fill-opacity:1;stroke:none"
         inkscape:connector-curvature="0" />
      <path
         d="m 9.19239,73.85001 a 4.596195,4.596195 0 0 1 -9.19239,0 4.596195,4.596195 0 1 1 9.19239,0 z"
         id="path3194"
         style="fill:#ffffff;fill-opacity:1;stroke:none"
         inkscape:connector-curvature="0" />
    </g>
    <g
       id="g3196"
       transform="translate(-2.7198849,0)">
      <path
         d="m 37.47672,15.20768 a 4.596195,4.596195 0 0 1 -9.19239,0 4.596195,4.596195 0 1 1 9.19239,0 z"
         id="path3198"
         style="fill:#ffffff;fill-opacity:1;stroke:none"
         inkscape:connector-curvature="0" />
      <path
         d="m 37.47672,44.52885 a 4.596195,4.596195 0 0 1 -9.19239,0 4.596195,4.596195 0 1 1 9.19239,0 z"
         id="path3200"
         style="fill:#ffffff;fill-opacity:1;stroke:none"
         inkscape:connector-curvature="0" />
      <path
         d="m 37.47672,73.85001 a 4.596195,4.596195 0 0 1 -9.19239,0 4.596195,4.596195 0 1 1 9.19239,0 z"
         id="path3202"
         style="fill:#ffffff;fill-opacity:1;stroke:none"
         inkscape:connector-curvature="0" />
    </g>
    <g
       id="g3204">
      <path
         d="m 65.76093,15.20768 a 4.596195,4.596195 0 0 1 -9.19239,0 4.596195,4.596195 0 1 1 9.19239,0 z"
         id="path3206"
         style="fill:#ffffff;fill-opacity:1;stroke:none"
         inkscape:connector-curvature="0" />
      <path
         d="m 65.76093,44.52885 a 4.596195,4.596195 0 0 1 -9.19239,0 4.596195,4.596195 0 1 1 9.19239,0 z"
         id="path3208"
         style="fill:#ffffff;fill-opacity:1;stroke:none"
         inkscape:connector-curvature="0" />
      <path
         d="m 65.76093,73.85001 a 4.596195,4.596195 0 0 1 -9.19239,0 4.596195,4.596195 0 1 1 9.19239,0 z"
         id="path3210"
         style="fill:#ffffff;fill-opacity:1;stroke:none"
         inkscape:connector-curvature="0" />
    </g>
    <g
       id="g3212"
       transform="translate(-36.44375,0)">
      <path
         inkscape:connector-curvature="0"
         style="fill:#ffffff;fill-opacity:1;stroke:none"
         id="path3214"
         d="m 9.19239,15.20768 a 4.596195,4.596195 0 0 1 -9.19239,0 4.596195,4.596195 0 1 1 9.19239,0 z" />
      <path
         inkscape:connector-curvature="0"
         style="fill:#ffffff;fill-opacity:1;stroke:none"
         id="path3216"
         d="m 9.19239,44.52885 a 4.596195,4.596195 0 0 1 -9.19239,0 4.596195,4.596195 0 1 1 9.19239,0 z" />
      <path
         inkscape:connector-curvature="0"
         style="fill:#ffffff;fill-opacity:1;stroke:none"
         id="path3218"
         d="m 9.19239,73.85001 a 4.596195,4.596195 0 0 1 -9.19239,0 4.596195,4.596195 0 1 1 9.19239,0 z" />
    </g>
  </g>
</svg>
